<?xml version="1.0" encoding="UTF-8"?>
<svg id="Layer_1" xmlns="http://www.w3.org/2000/svg" version="1.1" viewBox="0 0 205.85 142.99">
  <!-- Generator: Adobe Illustrator 30.1.0, SVG Export Plug-In . SVG Version: 2.1.1 Build 136)  -->
  <polygon points="192.45 136.26 104.33 136.44 131.64 65.6 165.32 65.67 192.45 136.26"/>
  <path d="M101.64,58.8c-11.74,22.34-27.17,40.91-46.77,56.52-19.64-15.78-35.38-34.53-46.69-56.62l14.96-10.72-14.76-7.54,25.2-14.22c-2.08,17.97,6.43,40.7,12.64,58.33.8-11.69,2.94-22.44,6.25-34.22,1.1-3.93.52-10.46.26-14.48l-9.98-9.99,24.3.04-10.03,10.01c-.23,3.53-.84,9.93.09,13.38,3.14,11.67,5.4,22.07,6.64,34.77,5.33-14.92,14.74-40.26,12.44-57.88l25.23,14.25-14.73,7.51,14.97,10.86Z"/>
  <path d="M167.63,30.01c1.64,19.39-4.11,14.17-4.32,31.4l-29.56.08c-.71-16.91-5.78-12.6-4.66-30.86l-8.37,10.35-9.66-9.04c10.55-15.41,7.5-17.53,25.01-27.1,2.3,6.27,6.44,10.21,12.4,10.21s10.19-3.94,12.26-10.25c17.41,9.45,14.6,11.79,25.06,27.13l-9.63,9.1-8.53-11.01Z"/>
</svg>